<?xml version="1.0" encoding="UTF-8" standalone="no" ?>
<!DOCTYPE svg PUBLIC "-//W3C//DTD SVG 1.1//EN" "http://www.w3.org/Graphics/SVG/1.1/DTD/svg11.dtd">
<svg xmlns="http://www.w3.org/2000/svg" xmlns:xlink="http://www.w3.org/1999/xlink" version="1.1" width="1280" height="1024" viewBox="0 0 1280 1024" xml:space="preserve">
<desc>Created with Fabric.js 5.3.0</desc>
<defs>
</defs>
<g transform="matrix(1 0 0 1 640 512)" id="background-logo"  >
<rect style="stroke: none; stroke-width: 0; stroke-dasharray: none; stroke-linecap: butt; stroke-dashoffset: 0; stroke-linejoin: miter; stroke-miterlimit: 4; fill: rgb(255,255,255); fill-opacity: 0; fill-rule: nonzero; opacity: 1;"  paint-order="stroke"  x="-640" y="-512" rx="0" ry="0" width="1280" height="1024" />
</g>
<g transform="matrix(1.9211538461538462 0 0 1.9211538461538462 640 412.8953565735541)" id="logo-logo"  >
<g style=""  paint-order="stroke"   >
		<g transform="matrix(0.5589970464734628 0 0 0.5589970464734628 28.608989548832028 14.444066159769477)"  >
<linearGradient id="SVGID_50_77288" gradientUnits="userSpaceOnUse" gradientTransform="matrix(-0.6521004 0.7581326 -0.7581326 -0.6521004 2695.8232422 -593.7294922)"  x1="2096.3786621" y1="1163.0499268" x2="2338.9538574" y2="1163.0499268">
<stop offset="5.5%" style="stop-color:rgb(16,16,16);stop-opacity: 1"/>
<stop offset="51.5%" style="stop-color:rgb(88,88,88);stop-opacity: 1"/>
<stop offset="100%" style="stop-color:rgb(149,149,149);stop-opacity: 1"/>
</linearGradient>
<path style="stroke: none; stroke-width: 1; stroke-dasharray: none; stroke-linecap: butt; stroke-dashoffset: 0; stroke-linejoin: miter; stroke-miterlimit: 4; fill: url(#SVGID_50_77288); fill-rule: nonzero; opacity: 1;"  paint-order="stroke"  transform=" translate(-348.82913759342404, -323.4892552185663)" d="M 260.4686584 391.8339233 C 290.90191649999997 443.9763183 367.90844719999996 426.37023919999996 403.33651729999997 390.8529663 C 425.21923819999995 368.9153747 439.8560791 339.22137449999997 444.46133419999995 308.6155701 C 448.84341429999995 279.494812 440.56005859999993 249.41419990000003 429.84725949999995 222.40058900000002 C 434.94384759999997 242.00894170000004 436.8488159 246.70127870000002 436.68420409999993 259.56112670000005 C 436.4739379999999 275.91693110000006 432.7889708999999 292.6545105 426.85894779999995 307.94256590000003 C 390.97018439999994 400.4656982 289.08657839999995 416.16247560000005 252.00035099999997 360.46481320000004 C 252.3038483 370.2315063 255.6555023 383.5871582 260.4686584 391.8339233 z" stroke-linecap="round" />
</g>
		<g transform="matrix(0.5589970464734628 0 0 0.5589970464734628 27.88893470973551 17.732601305466773)"  >
<linearGradient id="SVGID_51_77289" gradientUnits="userSpaceOnUse" gradientTransform="matrix(-0.6521004 0.7581326 -0.7581326 -0.6521004 2695.8232422 -593.7294922)"  x1="2165.6037598" y1="1175.0007324" x2="2284.7316895" y2="1175.0007324">
<stop offset="0%" style="stop-color:rgb(32,32,32);stop-opacity: 1"/>
<stop offset="58.5%" style="stop-color:rgb(153,153,153);stop-opacity: 1"/>
<stop offset="100%" style="stop-color:rgb(190,190,190);stop-opacity: 1"/>
</linearGradient>
<path style="stroke: none; stroke-width: 1; stroke-dasharray: none; stroke-linecap: butt; stroke-dashoffset: 0; stroke-linejoin: miter; stroke-miterlimit: 4; fill: url(#SVGID_51_77289); fill-rule: nonzero; opacity: 1;"  paint-order="stroke"  transform=" translate(-347.5410183741202, -329.3721756497987)" d="M 394.5968018 283.3901978 C 394.5452881 283.4362183 394.4902955 283.4751587 394.4383545 283.5202942 C 391.1640625 330.6600647 339.7199402 359.2568054 298.3573914 336.3869629 C 299.401825 340.29595950000004 300.0064393 345.2675171 300.69049079999996 347.6473389 C 301.8555909 351.7007141 302.46813969999994 360.44021610000004 305.44586189999995 363.58370970000004 C 336.269928 396.1239014 410.1604919 358.5544434 394.5968018 283.3901978 z" stroke-linecap="round" />
</g>
		<g transform="matrix(0.5589970464734628 0 0 0.5589970464734628 -44.6851408066853 20.449434728022396)"  >
<linearGradient id="SVGID_52_77290" gradientUnits="userSpaceOnUse" gradientTransform="matrix(-0.3305119 -0.9438018 0.9438018 -0.3305119 1664.9256592 1842.2010498)"  x1="1769.8476563" y1="-864.1392822" x2="2012.4227295" y2="-864.1392822">
<stop offset="5.5%" style="stop-color:rgb(16,16,16);stop-opacity: 1"/>
<stop offset="51.5%" style="stop-color:rgb(88,88,88);stop-opacity: 1"/>
<stop offset="100%" style="stop-color:rgb(149,149,149);stop-opacity: 1"/>
</linearGradient>
<path style="stroke: none; stroke-width: 1; stroke-dasharray: none; stroke-linecap: butt; stroke-dashoffset: 0; stroke-linejoin: miter; stroke-miterlimit: 4; fill: url(#SVGID_52_77290); fill-rule: nonzero; opacity: 1;"  paint-order="stroke"  transform=" translate(-217.71193256003966, -334.2323684534911)" d="M 223.7375031 218.5311432 C 163.3642426 218.8159332 140.1083069 294.3085632 153.153122 342.7488403 C 161.2102662 372.66860959999997 179.607605 400.1914978 203.81039429999998 419.482666 C 226.8386841 437.8380127 257.0309143 445.7047119 285.7817993 449.9339905 C 266.2521667 444.5435791 261.2359924 443.847168 250.1813507 437.2746887 C 236.1219482 428.91470330000004 223.4692383 417.3546142 213.1944122 404.57504270000004 C 151.0114135 327.2329101 188.3594207 231.15071100000003 255.1381073 226.88194270000005 C 246.5281677 222.2614288 233.2860107 218.4862213 223.7375031 218.5311432 z" stroke-linecap="round" />
</g>
		<g transform="matrix(0.5589970464734628 0 0 0.5589970464734628 -41.464478950553826 18.181998028091385)"  >
<linearGradient id="SVGID_53_77291" gradientUnits="userSpaceOnUse" gradientTransform="matrix(-0.3305119 -0.9438018 0.9438018 -0.3305119 1664.9256592 1842.2010498)"  x1="1839.0727539" y1="-852.1884766" x2="1958.2006836" y2="-852.1884766">
<stop offset="0%" style="stop-color:rgb(32,32,32);stop-opacity: 1"/>
<stop offset="58.5%" style="stop-color:rgb(153,153,153);stop-opacity: 1"/>
<stop offset="100%" style="stop-color:rgb(190,190,190);stop-opacity: 1"/>
</linearGradient>
<path style="stroke: none; stroke-width: 1; stroke-dasharray: none; stroke-linecap: butt; stroke-dashoffset: 0; stroke-linejoin: miter; stroke-miterlimit: 4; fill: url(#SVGID_53_77291); fill-rule: nonzero; opacity: 1;"  paint-order="stroke"  transform=" translate(-223.47343322708184, -330.1761096338147)" d="M 250.5884857 388.911377 C 250.5743713 388.8437806 250.5681457 388.77670290000003 250.5550232 388.7091065 C 211.3679199 362.3036194 212.3244934 303.4533387 252.8116303 279.0672303 C 248.9041138 278.0172425 244.29632569999998 276.05508430000003 241.89331059999998 275.45758060000003 C 237.8004456 274.43988040000005 229.92552189999998 270.6006165 225.71432499999997 271.60766600000005 C 182.1216583 282.0320129 177.7124939 364.8078003 250.5884857 388.911377 z" stroke-linecap="round" />
</g>
		<g transform="matrix(0.5589970464734628 0 0 0.5589970464734628 -9.423173487330132 -42.91510981122781)"  >
<linearGradient id="SVGID_54_77292" gradientUnits="userSpaceOnUse" gradientTransform="matrix(0.9826123 0.1856692 -0.1856692 0.9826123 70.7966919 -268.54776)"  x1="177.5158539" y1="432.2394714" x2="420.0909119" y2="432.2394714">
<stop offset="5.5%" style="stop-color:rgb(16,16,16);stop-opacity: 1"/>
<stop offset="51.5%" style="stop-color:rgb(88,88,88);stop-opacity: 1"/>
<stop offset="100%" style="stop-color:rgb(149,149,149);stop-opacity: 1"/>
</linearGradient>
<path style="stroke: none; stroke-width: 1; stroke-dasharray: none; stroke-linecap: butt; stroke-dashoffset: 0; stroke-linejoin: miter; stroke-miterlimit: 4; fill: url(#SVGID_54_77292); fill-rule: nonzero; opacity: 1;"  paint-order="stroke"  transform=" translate(-280.79270828472704, -220.87838037967697)" d="M 392.1877136 273.3724365 C 422.1276855 220.9452514 368.3771362 163.0587005 319.9042053 150.13571159999998 C 289.964386 142.15353389999999 256.93017580000003 144.32463069999997 228.1221313 155.63928219999997 C 200.7117919 166.40469359999997 178.8029022 188.61857599999996 160.7648315 211.40293879999996 C 175.1978607 197.18496699999997 178.30906670000002 193.18905639999997 189.52832030000002 186.90170279999995 C 203.7979889 178.90588369999995 220.13565060000002 173.72836299999994 236.3405151 171.21989429999996 C 334.4122619 156.03890979999997 398.9478759 236.42431629999996 369.2554016 296.390747 C 377.5618591 291.2445679 387.4523621 281.6641541 392.1877136 273.3724365 z" stroke-linecap="round" />
</g>
		<g transform="matrix(0.5589970464734628 0 0 0.5589970464734628 -4.841940152172867 -38.642397635134216)"  >
<linearGradient id="SVGID_55_77293" gradientUnits="userSpaceOnUse" gradientTransform="matrix(0.9826123 0.1856692 -0.1856692 0.9826123 70.7966919 -268.54776)"  x1="246.7408905" y1="444.1902466" x2="365.868866" y2="444.1902466">
<stop offset="0%" style="stop-color:rgb(32,32,32);stop-opacity: 1"/>
<stop offset="58.5%" style="stop-color:rgb(153,153,153);stop-opacity: 1"/>
<stop offset="100%" style="stop-color:rgb(190,190,190);stop-opacity: 1"/>
</linearGradient>
<path style="stroke: none; stroke-width: 1; stroke-dasharray: none; stroke-linecap: butt; stroke-dashoffset: 0; stroke-linejoin: miter; stroke-miterlimit: 4; fill: url(#SVGID_55_77293); fill-rule: nonzero; opacity: 1;"  paint-order="stroke"  transform=" translate(-288.9881600568944, -228.52191302989183)" d="M 231.2085876 211.4359283 C 231.27420039999998 211.4575195 231.3354187 211.485672 231.40049739999998 211.5080871 C 273.86187739999997 190.7738037 324.3494262 221.0273742 325.2248535 268.2833251 C 328.0879211 265.4243163 332.091095 262.41491690000004 333.81008909999997 260.63259880000004 C 336.73785399999997 257.5969238 344.0002136 252.69665520000004 345.2336731 248.54614250000003 C 358.0022583 205.5816193 288.5209045 160.3752594 231.2085876 211.4359283 z" stroke-linecap="round" />
</g>
</g>
</g>
<g transform="matrix(1.9211538461538462 0 0 1.9211538461538462 650.4880817700262 411.6930984966311)" id="text-logo"  >
<g style=""  paint-order="stroke"   >
		<g transform="matrix(1 0 0 1 0 0)" id="text-logo-path-0"  >
<path style="stroke: none; stroke-width: 0; stroke-dasharray: none; stroke-linecap: butt; stroke-dashoffset: 0; stroke-linejoin: miter; stroke-miterlimit: 4; fill: rgb(84,84,85); fill-rule: nonzero; opacity: 1;"  paint-order="stroke"  transform=" translate(-27.57, 10.049999999999999)" d="M 3.78 -6.24 L 1.5 -5.4 C 2.91 -1.59 5.64 0.3 9.72 0.3 C 14.07 0.3 17.13 -2.19 17.13 -5.55 C 17.13 -7.95 15.63 -9.36 13.8 -10.02 C 12.84 -10.38 11.64 -10.71 10.11 -11.07 C 7.5 -11.67 6.27 -12.06 5.31 -12.99 C 4.8 -13.47 4.56 -14.07 4.56 -14.82 C 4.56 -16.89 6.63 -18.3 9.27 -18.3 C 12 -18.3 13.44 -17.19 14.61 -14.25 L 16.83 -15.15 C 15.42 -18.69 12.99 -20.4 9.27 -20.4 C 5.31 -20.4 2.16 -18.06 2.16 -14.82 C 2.16 -12.27 3.78 -10.77 5.67 -10.05 C 6.66 -9.66 7.89 -9.3 9.48 -8.91 C 11.91 -8.31 13.11 -8.01 14.04 -7.17 C 14.49 -6.75 14.73 -6.21 14.73 -5.55 C 14.73 -3.3 12.81 -1.8 9.72 -1.8 C 6.45 -1.8 4.83 -3.3 3.78 -6.24 Z M 34.38 0 L 39.57 -16.44 L 44.76 0 L 47.28 0 L 53.64 -20.1 L 51.12 -20.1 L 46.02 -3.99 L 40.95 -20.1 L 38.22 -20.1 L 33.12 -3.99 L 28.05 -20.1 L 25.53 -20.1 L 31.86 0 Z" stroke-linecap="round" />
</g>
</g>
</g>
<g transform="matrix(1.9211538461538462 0 0 1.9211538461538462 639.8740954511472 693.0330151053353)" id="tagline-debef588-fb05-4a04-9366-73c61162ffcb-logo"  >
<g style=""  paint-order="stroke"   >
		<g transform="matrix(1 0 0 1 -6.100499999999954 -27.64179999999999)" id="tagline-debef588-fb05-4a04-9366-73c61162ffcb-logo-path-0"  >
<path style="stroke: none; stroke-width: 0; stroke-dasharray: none; stroke-linecap: butt; stroke-dashoffset: 0; stroke-linejoin: miter; stroke-miterlimit: 4; fill: rgb(115,115,115); fill-rule: nonzero; opacity: 1;"  paint-order="stroke"  transform=" translate(-15.08, 7.035)" d="M 4.75 0 L 5.8 -2.73 L 10.92 -2.73 L 11.97 0 L 15.67 0 L 10.21 -14.07 L 6.51 -14.07 L 1.05 0 Z M 6.95 -5.67 L 8.36 -9.3 L 9.77 -5.67 Z M 29.11 0 L 29.11 -14.07 L 25.75 -14.07 L 25.75 0 Z" stroke-linecap="round" />
</g>
		<g transform="matrix(1 0 0 1 -0.015749999999968622 -0.11499999999995225)" id="tagline-debef588-fb05-4a04-9366-73c61162ffcb-logo-path-1"  >
<path style="stroke: none; stroke-width: 0; stroke-dasharray: none; stroke-linecap: butt; stroke-dashoffset: 0; stroke-linejoin: miter; stroke-miterlimit: 4; fill: rgb(115,115,115); fill-rule: nonzero; opacity: 1;"  paint-order="stroke"  transform=" translate(-83.925, 7.035)" d="M 4.41 0 L 4.41 -5.57 L 9.87 -5.57 L 9.87 -8.51 L 4.41 -8.51 L 4.41 -11.15 L 11.13 -11.15 L 11.13 -14.09 L 1.05 -14.07 L 1.05 0 Z M 32.95 0 L 29.78 -5.08 C 31.46 -5.78 32.63 -7.43 32.63 -9.41 C 32.63 -11.95 30.66 -13.97 28.14 -14.07 L 21.21 -14.07 L 21.21 0 L 24.57 0 L 24.57 -4.73 L 25.91 -4.73 L 28.88 0 Z M 27.55 -7.67 L 24.57 -7.67 L 24.57 -11.13 L 27.55 -11.13 C 28.58 -11.13 29.27 -10.42 29.27 -9.39 C 29.27 -8.36 28.58 -7.67 27.55 -7.67 Z M 50.34 0.23 C 53.02 0.23 55.4 -1.2 56.68 -3.42 C 57.33 -4.54 57.64 -5.73 57.64 -7.04 C 57.64 -9.64 56.26 -11.99 54.01 -13.31 C 52.9 -13.97 51.66 -14.3 50.34 -14.3 C 47.65 -14.3 45.28 -12.89 43.99 -10.67 C 43.34 -9.55 43.03 -8.34 43.03 -7.04 C 43.03 -4.43 44.41 -2.08 46.66 -0.76 C 47.77 -0.11 49.01 0.23 50.34 0.23 Z M 46.49 -7.04 C 46.49 -9.2 48.22 -10.92 50.34 -10.92 C 52.48 -10.92 54.18 -9.2 54.18 -7.04 C 54.18 -4.87 52.46 -3.15 50.34 -3.15 C 48.2 -3.15 46.49 -4.87 46.49 -7.04 Z M 71.08 0 L 71.08 -8.69 L 76.21 0 L 80.33 0 L 80.33 -14.07 L 76.97 -14.07 L 76.97 -5.33 L 71.82 -14.07 L 67.72 -14.07 L 67.72 0 Z M 97.55 0 L 97.55 -11.15 L 101.33 -11.15 L 101.33 -14.09 L 90.41 -14.09 L 90.41 -11.15 L 94.19 -11.15 L 94.19 0 Z M 111.41 0 L 121.48 0 L 121.48 -2.94 L 114.77 -2.94 L 114.77 -5.57 L 120.23 -5.57 L 120.23 -8.51 L 114.77 -8.51 L 114.77 -11.13 L 121.48 -11.13 L 121.48 -14.07 L 111.41 -14.07 Z M 134.93 0 L 134.93 -8.69 L 140.05 0 L 144.17 0 L 144.17 -14.07 L 140.81 -14.07 L 140.81 -5.33 L 135.66 -14.07 L 131.57 -14.07 L 131.57 0 Z M 159.54 -2.94 L 157.6 -2.94 L 157.6 -11.13 L 159.54 -11.13 C 161.72 -11.13 163.44 -9.32 163.44 -7.04 C 163.44 -4.77 161.72 -2.94 159.54 -2.94 Z M 159.75 -14.07 L 154.25 -14.07 L 154.25 0 L 159.75 0 C 162.33 0 164.6 -1.36 165.86 -3.53 C 166.49 -4.6 166.8 -5.78 166.8 -7.04 C 166.8 -9.55 165.48 -11.84 163.32 -13.13 C 162.25 -13.76 161.05 -14.07 159.75 -14.07 Z" stroke-linecap="round" />
</g>
		<g transform="matrix(1 0 0 1 0 27.411800000000028)" id="tagline-debef588-fb05-4a04-9366-73c61162ffcb-logo-path-2"  >
<path style="stroke: none; stroke-width: 0; stroke-dasharray: none; stroke-linecap: butt; stroke-dashoffset: 0; stroke-linejoin: miter; stroke-miterlimit: 4; fill: rgb(115,115,115); fill-rule: nonzero; opacity: 1;"  paint-order="stroke"  transform=" translate(-117.725, 7.035)" d="M 6.34 -2.94 L 4.41 -2.94 L 4.41 -11.13 L 6.34 -11.13 C 8.53 -11.13 10.25 -9.32 10.25 -7.04 C 10.25 -4.77 8.53 -2.94 6.34 -2.94 Z M 6.55 -14.07 L 1.05 -14.07 L 1.05 0 L 6.55 0 C 9.13 0 11.4 -1.36 12.66 -3.53 C 13.29 -4.6 13.61 -5.78 13.61 -7.04 C 13.61 -9.55 12.29 -11.84 10.12 -13.13 C 9.05 -13.76 7.85 -14.07 6.55 -14.07 Z M 23.69 0 L 33.77 0 L 33.77 -2.94 L 27.05 -2.94 L 27.05 -5.57 L 32.51 -5.57 L 32.51 -8.51 L 27.05 -8.51 L 27.05 -11.13 L 33.77 -11.13 L 33.77 -14.07 L 23.69 -14.07 Z M 53 0 L 58.46 -14.07 L 54.77 -14.07 L 51.16 -4.77 L 47.54 -14.07 L 43.85 -14.07 L 49.31 0 Z M 68.54 0 L 78.62 0 L 78.62 -2.94 L 71.9 -2.94 L 71.9 -5.57 L 77.36 -5.57 L 77.36 -8.51 L 71.9 -8.51 L 71.9 -11.13 L 78.62 -11.13 L 78.62 -14.07 L 68.54 -14.07 Z M 88.7 0 L 98.36 0 L 98.36 -2.94 L 92.06 -2.94 L 92.06 -14.07 L 88.7 -14.07 Z M 115.75 0.23 C 118.44 0.23 120.81 -1.2 122.09 -3.42 C 122.75 -4.54 123.06 -5.73 123.06 -7.04 C 123.06 -9.64 121.67 -11.99 119.43 -13.31 C 118.31 -13.97 117.08 -14.3 115.75 -14.3 C 113.06 -14.3 110.69 -12.89 109.41 -10.67 C 108.76 -9.55 108.44 -8.34 108.44 -7.04 C 108.44 -4.43 109.83 -2.08 112.08 -0.76 C 113.19 -0.11 114.43 0.23 115.75 0.23 Z M 111.91 -7.04 C 111.91 -9.2 113.63 -10.92 115.75 -10.92 C 117.89 -10.92 119.6 -9.2 119.6 -7.04 C 119.6 -4.87 117.87 -3.15 115.75 -3.15 C 113.61 -3.15 111.91 -4.87 111.91 -7.04 Z M 136.5 0 L 136.5 -4.73 L 140.07 -4.73 C 142.59 -4.83 144.56 -6.85 144.56 -9.41 C 144.56 -11.95 142.59 -13.97 140.07 -14.07 L 133.14 -14.07 L 133.14 0 Z M 139.48 -7.67 L 136.5 -7.67 L 136.5 -11.13 L 139.48 -11.13 C 140.51 -11.13 141.2 -10.42 141.2 -9.39 C 141.2 -8.36 140.51 -7.67 139.48 -7.67 Z M 158 0 L 158 -6.68 L 160.75 0 L 164.43 0 L 167.2 -6.72 L 167.2 0 L 170.56 0 L 170.56 -14.07 L 166.57 -14.07 L 162.6 -4.41 L 158.61 -14.07 L 154.64 -14.07 L 154.64 0 Z M 180.64 0 L 190.72 0 L 190.72 -2.94 L 184 -2.94 L 184 -5.57 L 189.46 -5.57 L 189.46 -8.51 L 184 -8.51 L 184 -11.13 L 190.72 -11.13 L 190.72 -14.07 L 180.64 -14.07 Z M 204.16 0 L 204.16 -8.69 L 209.29 0 L 213.4 0 L 213.4 -14.07 L 210.04 -14.07 L 210.04 -5.33 L 204.9 -14.07 L 200.8 -14.07 L 200.8 0 Z M 230.62 0 L 230.62 -11.15 L 234.4 -11.15 L 234.4 -14.09 L 223.48 -14.09 L 223.48 -11.15 L 227.26 -11.15 L 227.26 0 Z" stroke-linecap="round" />
</g>
</g>
</g>
</svg>